<?xml version="1.0"?>
<svg xmlns:rdf="http://www.w3.org/1999/02/22-rdf-syntax-ns#" xmlns="http://www.w3.org/2000/svg" xmlns:cc="http://creativecommons.org/ns#" xmlns:xlink="http://www.w3.org/1999/xlink" xmlns:dc="http://purl.org/dc/elements/1.1/" xmlns:svg="http://www.w3.org/2000/svg" id="svg2" viewBox="0 0 1151.5 1151.5" version="1.0">
  <defs id="defs4">
    <radialGradient id="radialGradient4012" gradientUnits="userSpaceOnUse" cy="431.65" cx="395.21" gradientTransform="matrix(1.283 .96838 -.60244 .79816 58.704 -383.59)" r="543.36">
      <stop id="stop2227" stop-color="#bee57c" offset="0"/>
      <stop id="stop2229" stop-color="#a6d904" offset="1"/>
    </radialGradient>
  </defs>
  <g id="layer1" transform="translate(186.8 -41.127)">
    <g id="g4265" fill-rule="evenodd">
      <path id="path1350" d="m848.57 563.79a542.86 542.86 0 1 1 -1085.7 0 542.86 542.86 0 1 1 1085.7 0z" transform="matrix(1.0578 0 0 1.0578 65.559 20.482)" stroke="#477000" stroke-width="2.836" fill="url(#radialGradient4012)"/>
      <path id="path2244" fill="#f7f7f7" d="m0.52462 1040.4c-14.062-11.7-24.166-23.9-36.029-36.5 58.095 1 101.12-13.58 153.5-49.77 43.81-27.62 100.8-190.47 78.89-338.09-14.29-126.67-40.21-102.58-70.79-293.44-13.33-73.34 0.32-174.75 101.28-256.65 27.59-7.799 38.91-10.762 84.08-18.121-168.1 114.24-149.43 208.11-138.58 281.44 5.71 103.81 61.48 156.83 75.77 288.47 21.9 152.59-46.67 336.66-90.48 364.28-52.38 36.18-99.55 59.28-157.65 58.38z"/>
      <path id="path2254" fill="#f7f7f7" d="m840.05 261.16c14.17 16.45 22.04 27.5 34.41 47.53 12.3 144.81 17.42 268.06-17 387.71-45.73 129.34-143.59 282.05-131.81 323.3-1.11 19.9-2.22 40.7 7.46 59.7-10.78 5-20.66 13.6-31.43 18.5-6.15-22.4-7.81-46.7-5.88-68.2 11.19-81.97 42.14-144.14 82.08-218.89 25.29-50.57 39.79-101.14 59.69-151.71 24.19-75.14 23.22-197 2.48-397.94z"/>
    </g>
  </g>
  <metadata>
    <rdf:RDF>
      <cc:Work>
        <dc:format>image/svg+xml</dc:format>
        <dc:type rdf:resource="http://purl.org/dc/dcmitype/StillImage"/>
        <cc:license rdf:resource="http://creativecommons.org/licenses/publicdomain/"/>
        <dc:publisher>
          <cc:Agent rdf:about="http://openclipart.org/">
            <dc:title>Openclipart</dc:title>
          </cc:Agent>
        </dc:publisher>
        <dc:title>Tennis Ball - Bola de Tenis</dc:title>
        <dc:date>2008-04-10T09:41:46</dc:date>
        <dc:description>ball, ball, bola, bola, clip art, clipart, deporte, deporte, image, media, public domain, sport, sport, svg, tenis, tenis, tennis, tennis, </dc:description>
        <dc:source>http://openclipart.org/detail/16287/tennis-ball---bola-de-tenis-by-lunik</dc:source>
        <dc:creator>
          <cc:Agent>
            <dc:title>lunik</dc:title>
          </cc:Agent>
        </dc:creator>
        <dc:subject>
          <rdf:Bag>
            <rdf:li>ball</rdf:li>
            <rdf:li>bola</rdf:li>
            <rdf:li>clip art</rdf:li>
            <rdf:li>clipart</rdf:li>
            <rdf:li>deporte</rdf:li>
            <rdf:li>image</rdf:li>
            <rdf:li>media</rdf:li>
            <rdf:li>public domain</rdf:li>
            <rdf:li>sport</rdf:li>
            <rdf:li>svg</rdf:li>
            <rdf:li>tenis</rdf:li>
            <rdf:li>tennis</rdf:li>
          </rdf:Bag>
        </dc:subject>
      </cc:Work>
      <cc:License rdf:about="http://creativecommons.org/licenses/publicdomain/">
        <cc:permits rdf:resource="http://creativecommons.org/ns#Reproduction"/>
        <cc:permits rdf:resource="http://creativecommons.org/ns#Distribution"/>
        <cc:permits rdf:resource="http://creativecommons.org/ns#DerivativeWorks"/>
      </cc:License>
    </rdf:RDF>
  </metadata>
</svg>
