<svg width="24" height="20" viewBox="0 0 24 20" xmlns="http://www.w3.org/2000/svg" fill="#02a8f4"><path d="M21.0571 5.18066C21.0664 5.39186 21.0664 5.59346 21.0664 5.80466C21.0756 12.2079 16.3712 19.5999 7.76793 19.5999C5.23048 19.5999 2.73933 18.8415 0.600098 17.4207C0.970528 17.4687 1.34096 17.4879 1.71139 17.4879C3.81358 17.4879 5.86021 16.7583 7.51789 15.4047C5.51756 15.3663 3.75802 14.0127 3.14681 12.0351C3.85063 12.1791 4.57296 12.1503 5.25826 11.9487C3.08198 11.5071 1.51691 9.51987 1.50765 7.20626C1.50765 7.18706 1.50765 7.16786 1.50765 7.14866C2.15591 7.52306 2.88751 7.73426 3.62837 7.75346C1.58174 6.33266 0.942746 3.50065 2.18369 1.28304C4.5637 4.31665 8.06427 6.15026 11.8241 6.35186C11.4445 4.67185 11.9631 2.90545 13.1762 1.71505C15.0561 -0.118561 18.0196 -0.0225605 19.7977 1.92625C20.8441 1.71505 21.8535 1.31184 22.7704 0.745442C22.4185 1.86865 21.6869 2.81905 20.7145 3.42385C21.6406 3.30865 22.5481 3.04945 23.4001 2.66545C22.7704 3.64465 21.9739 4.48945 21.0571 5.18066Z"></path></svg>